<?xml version="1.0" encoding="UTF-8" standalone="no"?>
<!-- Created with Inkscape (http://www.inkscape.org/) -->

<svg
   version="1.1"
   id="svg1"
   width="968.42798"
   height="1171.8135"
   viewBox="0 0 968.42798 1171.8135"
   sodipodi:docname="my-logo-white.svg"
   inkscape:version="1.3 (0e150ed6c4, 2023-07-21)"
   xmlns:inkscape="http://www.inkscape.org/namespaces/inkscape"
   xmlns:sodipodi="http://sodipodi.sourceforge.net/DTD/sodipodi-0.dtd"
   xmlns="http://www.w3.org/2000/svg"
   xmlns:svg="http://www.w3.org/2000/svg">
  <defs
     id="defs1" />
  <sodipodi:namedview
     id="namedview1"
     pagecolor="#ffffff"
     bordercolor="#000000"
     borderopacity="0.25"
     inkscape:showpageshadow="2"
     inkscape:pageopacity="0.0"
     inkscape:pagecheckerboard="0"
     inkscape:deskcolor="#d1d1d1"
     inkscape:zoom="0.26265631"
     inkscape:cx="-382.6293"
     inkscape:cy="515.88328"
     inkscape:window-width="1920"
     inkscape:window-height="1011"
     inkscape:window-x="0"
     inkscape:window-y="0"
     inkscape:window-maximized="1"
     inkscape:current-layer="group-R5">
    <inkscape:page
       x="0"
       y="0"
       inkscape:label="1"
       id="page1"
       width="968.42798"
       height="1171.8135"
       margin="0"
       bleed="0" />
  </sodipodi:namedview>
  <g
     id="g1"
     inkscape:groupmode="layer"
     inkscape:label="1"
     transform="translate(1427.5818,694.95801)">
    <g
       id="group-R5">
      <path
         id="path13311"
         d="m -1265.8601,439.24162 c -0.164,0 -0.328,0.0133 -0.4907,0.0133 -0.048,0.65333 -0.093,1.30666 -0.14,1.94666 0.5987,-0.29333 0.8547,-0.62666 0.8973,-0.98666 0.039,-0.30667 -0.1693,-0.65334 -0.2666,-0.97334 z m 354.38929,-30.83466 c -0.4,-0.0547 -0.8,-0.108 -1.2,-0.15867 -0.0933,1.06 -0.18934,2.12134 -0.28267,3.18134 0.29067,0.0387 0.58267,0.0773 0.87333,0.11866 0.204,-1.048 0.40667,-2.096 0.60934,-3.14133 z m -250.23329,-724.89198 c -0.4027,-0.0787 -0.8054,-0.15734 -1.208,-0.236 -0.888,0.87066 -1.152,1.80133 0.3173,3.85066 0.4347,-1.768 0.6627,-2.692 0.8907,-3.61466 z m -77.4494,724.85065 c -0.3506,-0.076 -0.7013,-0.15334 -1.052,-0.23067 -0.24,1.14133 -0.48,2.27867 -0.7226,3.42 0.3573,0.0773 0.712,0.156 1.0693,0.23333 0.2347,-1.14 0.4693,-2.28 0.7053,-3.42266 z m 481.49602,-1035.12931 c 0.33066,0.0653 0.66266,0.13333 0.99333,0.19866 0.236,-1.104 0.47333,-2.20533 0.71067,-3.308 -0.368,-0.076 -0.73867,-0.152 -1.10667,-0.22533 -0.19867,1.11067 -0.39867,2.22267 -0.59733,3.33467 z M -1042.4908,172.9483 c -0.031,-0.13867 -0.061,-0.27867 -0.095,-0.416 -2.0813,0 -4.164,0 -6.2427,0 10e-4,0.13733 0,0.27733 0.01,0.416 2.112,0 4.22,0 6.328,0 z m 158.75332,-435.26399 c -0.0227,0.296 -0.048,0.59067 -0.0733,0.88933 0.80933,0.37734 1.61466,0.752 2.72266,1.27067 0.232,-1.20133 0.39867,-2.05867 0.65734,-3.38667 -1.42,0.52534 -2.364,0.876 -3.30667,1.22667 z m -326.60002,-57.47733 c -0.049,0.27466 -0.1,0.54666 -0.152,0.82133 2.7187,1.116 2.7187,1.116 4.2534,-1.084 -1.6187,0.104 -2.86,0.18267 -4.1014,0.26267 z m 199.9414,38.82933 c -1.3254,-2.016 -2.6134,-1.89733 -4.5174,0 1.976,0 3.2467,0 4.5174,0 z m 319.24662,-24.38933 c 2.112,2.25466 2.112,2.25466 3.80933,0 -1.44267,0 -2.62667,0 -3.80933,0 z m -729.72662,431.61065 c 0.027,0.36934 0.053,0.736 0.079,1.10534 2.924,0 5.8493,0 8.7746,0 0.01,-0.22934 0.013,-0.45867 0.023,-0.68667 -2.9573,-0.13867 -5.916,-0.27867 -8.876,-0.41867 z m 131.0426,-430.98132 c 1.3774,1.01067 2.828,1.68533 4.956,0.42267 -1.7893,-1.34534 -3.1506,-2.13867 -4.956,-0.42267 z m 607.40268,0.216 c 2.204,0.60533 4.32533,0.72133 6.63467,-1.33867 -2.77733,-0.432 -4.90133,-0.82533 -6.63467,1.33867 z m -588.17728,-51.28267 c -0.7374,-2.79733 -2.692,-2.30666 -3.9014,-2.96666 -0.2666,-0.14534 -1.3426,0.51466 -1.4533,0.95333 -0.108,0.42933 0.452,1.41333 0.8733,1.516 1.2894,0.31333 2.652,0.32267 4.4814,0.49733 z m 642.44261,10.61334 c -3.52533,-2.744 -6.3,-2.33867 -7.82933,0.60933 2.42,-0.188 4.69867,-0.36533 7.82933,-0.60933 z m 25.384,-24.82667 c 2.82267,0.94133 5.476,0.016 7.87067,-2.384 -2.15333,-0.21733 -2.15333,-0.21733 -7.87067,2.384 z m 15.25067,-6.136 c 0.19067,0.308 0.38,0.61333 0.57067,0.91867 1.39466,-0.47067 2.792,-0.94534 5.02,-1.7 -1.448,-1.31067 -2.23467,-2.02 -3.20267,-2.896 -0.75067,1.056 -1.22667,1.688 -1.66,2.35067 -0.27467,0.42 -0.488,0.88399 -0.728,1.32666 z m -7.65067,-6.356 c 1.912,2.01334 3.62667,2.40934 5.42,1.23867 1.39067,-0.90667 1.19334,-2.19333 0.256,-3.50933 -1.81733,0.728 -3.47333,1.388 -5.676,2.27066 z m -23.908,-16.46133 c 5.59467,1.80667 7.00134,1.708 8.532,-0.42933 -2.70533,-0.76267 -5.29733,-1.79467 -8.532,0.42933 z m -547.72261,108.68266 c 2.136,-5.60133 2.3413,-7.52133 1.1466,-9.89466 -1.384,3.016 -2.428,5.80933 -1.1466,9.89466 z m 505.39061,-49.172 c -2.3,0 -3.956,-0.28 -5.46,0.0813 -1.39466,0.33466 -3.416,-0.82 -4.25866,1.368 3.80933,2.232 7.52933,1.972 9.71866,-1.44934 z m -621.16661,35.128 c 3.648,1.81467 12.66,2.684 15.4333,1.72134 -0.9787,-0.64267 -1.668,-1.48134 -2.3707,-1.496 -4.36,-0.08 -8.716,-1.456 -13.0626,-0.22534 z m 16.8253,-52.904 c -0.081,0.37067 -0.1653,0.74134 -0.2467,1.11334 0.3387,0.20266 0.6774,0.57866 1.0227,0.58266 5.1227,0.0733 10.2467,0.104 15.368,0.10667 0.1013,10e-4 0.2027,-0.44533 0.468,-1.06667 -2.7573,-0.0787 -4.788,-2.26533 -7.864,-1.52 -2.816,0.68134 -5.8253,0.55334 -8.748,0.784 z m 593.87465,52.25467 c 2.15333,0 4.31333,0.11733 6.456,-0.032 2.04266,-0.14133 4.08533,-0.464 6.092,-0.88267 1.91466,-0.4 4.36533,0.45467 5.74533,-2.06133 -3.86933,-0.8 -16.016,0.66267 -18.29333,2.976 z m -3.996,372.190659 c 0.003,0.308 0.007,0.61466 0.009,0.92266 0.60667,0.148 1.22,0.44534 1.82,0.42134 4.28,-0.17467 8.55867,-0.36134 12.82933,-0.66534 1.392,-0.1 3.704,0.144 3.19334,-2.08533 -0.46134,-2.00933 -2.49734,-1.03067 -3.90267,-0.704 -3.992,0.932 -7.868,2.62933 -12.13867,1.56667 -0.52666,-0.13067 -1.20266,0.34666 -1.81066,0.544 z M -1109.8028,169.5003 c -10.4307,-0.69467 -19.9293,-1.34934 -29.436,-1.93867 -1.268,-0.0773 -2.8027,-0.51867 -3.9347,1.97867 11.112,-0.0707 21.7707,1.83333 33.3707,-0.04 z m -113.0533,138.27733 c 2.0453,-2.03467 2.08,-4.632 2.6506,-6.94934 1.616,-6.57733 3.092,-13.18799 4.6187,-19.78666 0.9627,-4.16 1.9373,-8.31733 2.8373,-12.492 0.1134,-0.52133 -0.1893,-1.128 -0.3733,-2.09867 -2.0827,3.588 -10.148,38.04267 -9.7333,41.32667 z m 26.88,-141.56 c -0.3427,1.28933 -0.7454,2.56533 -1.02,3.86533 -3.8827,18.37734 -7.6934,36.768 -11.636,55.13334 -2.8134,13.10133 -5.8014,26.16533 -8.6987,39.25066 -1.908,8.63467 -3.804,17.27067 -5.6627,25.916 -0.224,1.036 -0.168,2.132 -0.2413,3.19733 3.304,-5.55066 28.284,-121.41066 27.2587,-127.36266 z m -44.0334,-487.54132 c -2.556,-0.652 -4.532,-1.56533 -6.524,-1.596 -7.6866,-0.11467 -15.3786,0.10267 -23.0693,0.0747 -1.908,-0.007 -3.8107,-0.56267 -5.7267,-0.71734 -2.7173,-0.21733 -5.444,-0.336 -8.1706,-0.42 -2.04,-0.0627 -4.0934,0.10534 -6.1254,-0.036 -2.0573,-0.14266 -4.0893,-0.68933 -6.1453,-0.79466 -6.1827,-0.31334 -12.368,-0.54934 -18.5573,-0.712 -2.2574,-0.0573 -3.4374,1.236 -3.6187,3.38666 0.3813,0.308 0.5813,0.616 0.8027,0.62934 7.7213,0.48933 15.4333,2.34133 23.176,0.068 1.0373,-0.30534 2.192,-0.29334 3.2933,-0.28267 3.3067,0.028 6.6147,0.084 9.9187,0.21467 12.1266,0.476 24.248,0.99333 36.3733,1.47733 1.2893,0.0507 2.684,0.388 4.3733,-1.292 z m 323.65602,56.60267 c 0.33467,-0.116 0.58933,-0.28 0.848,-0.28134 10.728,-0.072 21.456,-0.12133 32.184,-0.19066 3.15333,-0.0187 3.34933,-0.16667 3.72933,-3.104 0.13067,-1.02267 0.02,-2.07734 0.02,-3.428 -3.52533,-0.13734 -6.67466,-0.37734 -9.82133,-0.34 -1.852,0.0213 -3.57333,0.008 -5.08533,-1.24134 -1.17467,-0.96933 -2.38134,-0.96933 -3.852,-0.37866 -1.356,0.54533 -3.10267,1.10533 -4.37467,0.70133 -6.276,-1.99067 -12.75733,-1.61067 -19.16533,-2.084 -3.96934,-0.296 -7.856,-0.98533 -11.78,-1.73733 -5.88934,-1.13067 -12.07733,-0.876 -18.14133,-0.88667 -5.796,-0.0107 -11.59334,0.59733 -17.38934,0.56 -7.17733,-0.0453 -14.352,-0.648 -21.52933,-0.69067 -8.22533,-0.0493 -16.45469,0.248 -24.68269,0.39867 -2.5346,0.048 -5.312,-0.7 -6.532,-1.812 1.8507,-0.92533 4.628,0.272 5.8094,-2.71067 -1.792,-1.23466 -3.7387,-1.44 -5.8374,-1.536 -6.5306,-0.30133 -13.4013,1.37467 -19.2733,-3.07733 -3.1333,-0.112 -6.2627,-0.27867 -9.3947,-0.32133 -2.448,-0.0347 -4.916,0.28933 -7.3426,0.0867 -3.1667,-0.26533 -3.584,-0.148 -4.2014,2.95334 -2.352,11.80266 -4.7453,23.596 -7.008,35.41466 -4.5493,23.768 -9.048,47.54667 -13.52,71.328 -2.2493,11.96266 -4.3586,23.95466 -6.5946,35.92133 -2.5667,13.73333 -5.3947,27.42133 -7.7654,41.188 -3.6893,21.402667 -7.024,42.862666 -10.6266,64.279999 -3.1894,18.964 -6.5467,37.9013298 -9.8014,56.85467 -0.244,1.41733 -0.268,2.87333 -0.4173,4.57199 1.8747,0.13734 3.232,0.29734 4.5947,0.328 4.8426,0.10267 9.6906,0.0493 14.5293,0.25867 8.5667,0.36933 17.124,1.01333 25.6907,1.31733 14.9346,0.52934 29.88,0.74667 44.8093,1.356 16.4427,0.668 32.87332,1.60134 49.30532,2.476 8.972,0.476 17.93734,1.076 26.91067,1.59467 3.868,0.224 7.74133,0.372 11.61066,0.56533 3.56667,0.17867 7.132,0.37067 10.576,0.55067 5.04134,-12.76266 49.076,-282.583989 48.01334,-293.235989 -11.87734,-0.28933 -23.81467,-0.58267 -35.36534,-0.864 0.28667,-1.58 0.55334,-3.04667 0.87067,-4.78533 z m 198.148,-7.908 -0.012,-0.0427 c -0.50134,0.69733 -0.89734,1.872 -1.52,2.00933 -3.09334,0.67734 -6.24267,1.13067 -9.38267,1.56134 -1.49067,0.20533 -3.04133,0.40133 -5.19733,-0.48134 4.40133,-1.96533 8.108,-3.61866 11.81466,-5.27466 0.128,-0.0547 0.324,-0.08 0.36667,-0.17467 0.26533,-0.576 0.688,-1.17467 0.66667,-1.75333 -0.0107,-0.34267 -0.688,-0.83067 -1.14667,-0.95334 -0.64533,-0.172 -1.36933,-0.0947 -2.05867,-0.0747 -3.436,0.0987 -6.872,0.216 -10.69066,0.33733 -0.74934,4.48133 -1.484,8.86533 -2.31067,13.804 5.672,-0.43067 10.764,-0.53867 15.772,-1.24933 14.472,-2.05067 28.90667,-4.36267 43.364,-6.52667 3.53333,-0.52933 7.21466,-1.61467 10.60266,-1.064 2.38134,0.38533 4.564,0.47733 6.81867,0.11067 6.12267,-0.99867 12.24667,-2.02267 18.332,-3.22934 3.916,-0.77466 7.77733,-1.84133 11.628,-2.90666 0.68667,-0.19067 1.19733,-1.02134 1.788,-1.55467 -0.11733,-0.316 -0.23867,-0.632 -0.35867,-0.94667 -2.66,0 -5.31733,0 -7.97866,0 -0.0307,-0.31466 -0.0613,-0.62666 -0.0947,-0.93866 5.19067,-2.016 11.152,-1.872 16.83467,-5.404 -1.56134,-0.17334 -2.196,-0.372 -2.79334,-0.29067 -5.73333,0.79333 -11.46533,1.59467 -17.18533,2.47067 -3.13733,0.48 -6.24933,1.12666 -9.376,1.66533 -1.272,0.22 -2.072,0.70133 -1.448,2.564 1.79733,0 3.72933,-0.19067 5.60133,0.0533 1.87867,0.24667 3.836,-1.63066 6.332,0.548 -10.17866,2.13867 -19.86133,2.94 -29.54,4 2.04934,-2.39333 5.85867,-1.33333 8.00667,-4.71466 -2.068,0.224 -3.54,0.472 -5.01333,0.512 -1.05467,0.028 -2.24267,0.0307 -3.152,-0.40934 -1.97467,-0.95333 -3.9,-0.9 -6.024,-0.72 -5.17067,0.43734 -10.30667,1.69734 -15.588,0.34134 -1.73067,-0.444 -3.78533,0.324 -5.68267,0.60666 -2.164,0.324 -4.30666,0.892 -6.47866,1.056 -3.71467,0.27734 -7.44934,0.264 -11.168,0.50134 -1.02934,0.0653 -2.396,0.27866 -2.96667,0.96266 -1.112,1.33467 -2.024,2.96934 -2.53467,4.63067 -0.33466,1.092 0.53067,1.79467 1.77334,0.97467 z m -563.73332,631.44665 c 3.8573,-17.42 7.7587,-34.82534 10.524,-52.472 1.304,-8.32134 3.3867,-16.524 5.1133,-24.78267 0.476,-2.28133 1.2387,-4.516 -0.196,-6.82666 -0.428,-0.68934 -0.2253,-1.90134 -0.04,-2.81867 1.308,-6.50267 2.568,-13.01867 4.1107,-19.468 0.4893,-2.04133 0.796,-4.25333 2.624,-5.92 0.892,-0.81467 1.116,-2.48267 1.4107,-3.81333 2.6933,-12.14934 5.4493,-24.28934 7.9666,-36.476 2.712,-13.14134 5.1907,-26.332 7.76,-39.5 0.2574,-1.316 0.4454,-2.64534 0.72,-4.29867 -2.4653,0 -4.4746,0 -6.728,0 -0.312,0.808 -0.772,1.652 -0.9653,2.55467 -3.608,16.75866 -7.1947,33.52266 -10.7667,50.29066 -2.2493,10.55067 -4.4173,21.12 -6.7133,31.66134 -3.968,18.24133 -7.5827,36.57866 -12.2173,54.65333 -2.0254,7.90266 -3.368,15.932 -5.4547,23.79866 -2.9013,10.93867 -5.8107,21.87467 -8.628,32.83467 -0.7533,2.928 -1.192,5.93733 -1.808,9.08267 -0.6373,-0.3 -1.1973,-0.56267 -2.0133,-0.944 -0.3614,0.84666 -0.8254,1.66 -1.0614,2.532 -2.3573,8.67333 -4.696,17.35466 -7.0026,26.044 -2.0894,7.87066 -4.204,15.73733 -6.172,23.63733 -1.7974,7.20133 -3.4187,14.45466 -5.1147,21.68133 -0.3173,-0.0533 -0.6333,-0.10667 -0.9493,-0.16 0.292,-2.72 0.5973,-5.45333 0.8666,-8.18667 0.1534,-1.52 0.552,-3.08 0.3147,-4.54666 -1.4107,-8.73733 1.508,-16.98133 2.764,-25.41067 0.752,-5.06 1.744,-10.084 2.6067,-15.12666 0.092,-0.53867 0.2293,-1.188 0.023,-1.64 -1.58,-3.45467 -0.232,-6.76667 0.4373,-10.09334 1.712,-8.53733 3.5827,-17.04666 5.2053,-25.60266 1.0307,-5.42134 1.7334,-10.904 2.564,-16.36267 0.1454,-0.95733 0.3387,-1.94 0.2587,-2.88933 -0.3733,-4.44134 -0.3813,-8.78667 1.6333,-12.956 0.4654,-0.964 0.168,-2.296 0.2374,-3.78267 -2.2334,0.652 -2.1907,2.228 -2.4934,3.444 -2.8493,11.40667 -5.6613,22.82267 -8.4453,34.24533 -1.7053,6.98667 -3.408,13.976 -4.9973,20.99067 -0.856,3.77067 -1.4414,7.60267 -2.1987,11.39467 -2.356,11.78266 -4.6413,23.57866 -7.1573,35.32933 -0.8907,4.15733 -2.34,8.19333 -3.572,12.27333 -0.756,2.52 -1.5827,5 -2.436,7.68 -0.6734,0 -1.436,0 -2.1827,0 -0.256,0.49333 -0.6413,0.86667 -0.608,1.21333 0.4667,4.37334 -2.4493,7.68 -3.6293,11.52 -1.1734,3.82667 -2.36,7.65334 -3.572,11.46667 -0.064,0.21333 -0.412,0.32 -1.1987,0.89333 0.9667,-5.01333 1.9133,-9.52 2.6987,-14.06666 1.508,-8.70667 2.8986,-17.42667 4.3973,-26.14134 0.54,-3.12799 1.1893,-6.24399 1.9053,-9.33733 2.688,-11.57733 5.972,-23.04933 7.9587,-34.744 1.5147,-8.89466 4.2227,-17.452 5.9107,-26.272 1.9493,-10.17866 4.0853,-20.32533 6.2573,-30.46 1.768,-8.24 3.7933,-16.42533 5.5453,-24.668 1.4934,-7.032 2.6934,-14.12533 4.1547,-21.16266 1.0373,-5.008 2.388,-9.95067 3.4267,-14.96 1.0373,-5.00267 1.7973,-10.06533 2.7906,-15.08133 3.0814,-15.6 6.212,-31.19334 9.3387,-46.78667 2.2267,-11.11333 4.476,-22.22133 6.7053,-33.33333 0.216,-1.072 0.3587,-2.16 0.548,-3.31467 -19.8853,-2.21067 -39.648,-4.104 -59.3226,-6.68 -19.5587,-2.56266 -39.0294,-5.80933 -58.4894,-9.196 7.8787,-1.69466 15.6067,2.04267 23.4934,0.13067 -10.3974,-2.676 -21.096,-3.748 -31.6734,-6.04267 0.9134,-0.10266 1.8294,-0.25466 2.748,-0.29733 1.092,-0.0533 2.1867,-0.012 3.7254,-0.012 -1.5427,-2.724 -4.22,-1.024 -6.164,-2.56667 2.148,-0.27333 3.9626,-0.50266 5.7786,-0.73466 0.016,-0.256 0.033,-0.512 0.051,-0.76934 -5.5013,-0.67466 -11.0013,-1.352 -16.5026,-2.02666 0,-0.20934 0,-0.41867 0.01,-0.62534 7.8626,0 15.7253,0 23.5853,0 0.015,-0.26266 0.027,-0.52533 0.041,-0.788 -3.7333,-0.74 -7.4467,-1.61866 -11.204,-2.184 -5.18,-0.77733 -10.396,-1.30933 -15.596,-1.96266 -2.572,-0.32667 -5.1893,-0.608 -6.58,-4.13867 4.3093,-0.19067 8.3627,-0.48267 12.416,-0.512 3.064,-0.02 6.0533,0.148 8.6667,-1.96667 0.6586,-0.532 1.8373,-0.53333 2.7853,-0.57466 7.0413,-0.29734 14.0827,-0.53734 21.1213,-0.808 1.924,-0.0747 3.8494,-0.18534 6.2174,-0.30267 -0.24,-1.40667 -0.432,-2.532 -0.656,-3.82933 0.8186,-0.64534 1.7293,-1.364 3.1906,-2.516 -1.864,-0.348 -3.0533,-0.49734 -4.2013,-0.796 -2.9013,-0.75467 -5.7747,-1.60934 -8.6733,-2.36134 -1.3334,-0.344 -2.6987,-0.55466 -4.0534,-0.816 -4.9613,-0.95866 -9.9546,-1.79866 -14.58,-4.11466 4.7334,-0.49334 9.5454,2.572 14.9147,-0.916 -3.8213,-0.44934 -6.9587,-0.72534 -10.064,-1.20934 -3.112,-0.484 -6.192,-1.176 -9.2853,-1.77733 0,-0.28 -0.01,-0.55867 -0.01,-0.84 2.328,-0.24667 4.656,-0.49467 7,-0.744 -0.368,-2.082671 -0.368,-2.082671 -1.9267,-3.566671 0.404,-0.336 0.8053,-0.66666 1.448,-1.20133 -1.0013,-0.52133 -1.9387,-1.00933 -2.8773,-1.5 0.011,-0.26 0.021,-0.52267 0.029,-0.784 4.484,-0.94133 8.9653,-1.88267 14.0066,-2.94133 -2.5,-2.32534 -4.9626,-1.852 -6.9866,-1.208 -5.0907,1.61866 -10.1227,1.54933 -15.188,0.316 -1.5267,-0.37067 -2.9347,-1.236 -5.1627,-2.20934 5.2307,-2.29333 10.0893,-1.68933 14.6267,-3.27066 -2.4587,0 -4.9174,0 -7.3747,0 -0.1173,-0.292 -0.2333,-0.58534 -0.3507,-0.87734 1.272,-0.85866 2.4507,-2.21466 3.836,-2.47333 2.9387,-0.548 4.7574,-2.492 6.9294,-4.32933 -2.872,-0.94267 -5.6027,-1.83867 -8.5827,-2.81467 0.5133,-1.73067 0.8813,-2.98 1.28,-4.328 -2.156,-0.95067 -5.088,4.38267 -6.2747,-1.352 0.8094,-3.59867 4.632,-4.42933 8.4534,-6.624 -1.732,0 -2.46,0 -3.3214,0 -0.4506,-1.26533 -0.86,-2.41467 -1.4733,-4.14 3.6027,-0.84667 7.1293,-1.67333 11.2507,-2.64267 -2.128,-1.90266 -4.3787,-1.324 -7.0734,-1.56933 1.084,-0.72267 1.6267,-1.17867 2.2414,-1.48 9.624,-4.70667 20.1506,-5.688 30.512,-7.312 5.74,-0.89867 11.5306,-1.49733 17.2413,-2.548 2.808,-0.516 5.6467,-1.43333 8.1867,-2.728 6.0266,-3.07733 11.788,-6.67867 17.8453,-9.68667 3.2933,-1.632 6.8907,-2.924 10.496,-3.60266 8.8373,-1.668 17.7507,-2.93734 26.6493,-4.26667 2.7307,-0.40933 5.5054,-0.54 8.264,-0.71866 9.2454,-0.60134 18.492,-1.148 27.7374,-1.74934 3.844,-0.25066 4.0466,-0.34933 4.7693,-4.28533 2.3,-12.5146702 4.4853,-25.0520002 6.768,-37.57067 0.844,-4.61866 1.9347,-9.196 2.7347,-13.824 1.888,-10.902663 3.6746,-21.82133 5.4893,-32.735996 2.3347,-14.053333 4.7173,-28.099999 6.9667,-42.168003 2.5733,-16.11333 4.9973,-32.25333 7.5333,-48.372 2.4973,-15.85199 5.1013,-31.68533 7.572,-47.53999 1.5333,-9.84 2.88,-19.71067 4.3547,-29.56267 2.4359,-16.272 4.8746,-32.54666 7.3839,-48.81066 1.124,-7.27067 1.2067,-7.25867 -2.0986,-16.29867 -3.2187,-0.82133 -6.4627,-1.484 -10.012,-0.90533 -2.1853,0.35466 -4.6587,0.56 -6.812,-0.848 -0.5147,-0.336 -1.3907,-0.45334 -1.9853,-0.276 -5.4974,1.632 -10.9947,0.15733 -16.488,0.0853 -0.9614,-0.012 -1.924,-0.088 -2.8867,-0.11867 -5.216,-0.16666 -10.4307,-0.384 -15.6493,-0.46133 -1.7614,-0.0267 -3.8054,-0.54533 -5.4054,1.83067 6.1534,1.068 11.94,1.89866 17.6467,3.10666 5.6853,1.204 11.8653,0.0147 17.8347,3.604 -14.9027,-1.216 -29.0934,-1.98133 -43.1787,-3.63066 -14.1787,-1.664 -28.272,-4.132 -42.3293,-6.61334 -14.028,-2.48 -27.8827,-5.928 -41.812,-8.952 0.048,-0.34 0.1,-0.67866 0.1506,-1.01866 2.8627,0.29466 5.7294,0.58933 8.9454,0.92266 -1.184,-3.108 -3.7587,-2.3 -5.6547,-2.82133 -1.98,-0.54267 -4.0213,-0.872 -6.7173,-1.43733 1.004,-1.524 1.7586,-2.668 2.7866,-4.224 -2.3546,-0.78934 -4.7613,-1.52934 -7.116,-2.404 -2.256,-0.83734 -4.4613,-1.81467 -6.6893,-2.72934 0.049,-0.272 0.1013,-0.54 0.1493,-0.81066 1.4574,-0.47334 2.9134,-0.948 5,-1.62534 -1.2226,-0.66 -1.8746,-1.02666 -2.5413,-1.36533 -0.5933,-0.30133 -1.2013,-0.572 -2.4667,-1.168 1.192,-0.37867 1.7614,-0.724 2.3254,-0.71333 10.5013,0.17466 21.0013,0.41066 31.504,0.59066 4.5826,0.08 9.1626,0 14.5253,-1.19066 -1.3267,-0.90534 -1.9547,-1.564 -2.716,-1.812 -4.076,-1.32667 -8.1733,-2.58934 -12.2893,-3.78934 -1.2174,-0.356 -2.5387,-0.412 -2.4574,-2.70933 1.8894,0.396 3.7014,0.792 5.52,1.15333 4.72,0.93467 9.3867,2.30667 14.3094,0.99467 0.9813,-0.26 2.228,0.468 2.8813,0.62533 2.4027,-0.86933 4.5093,-1.63066 7.2867,-2.63333 -5.744,-2.44533 -11.452,-2.948 -16.788,-4.66533 -5.5254,-1.776 -11.1627,-3.204 -16.636,-4.75467 -0.1387,-1.056 -0.067,-2.108 -0.444,-2.96533 -0.3974,-0.90267 -1.224,-1.61734 -2.3747,-3.04934 5.2427,-0.264 9.6653,-0.48533 14.48,-0.72666 -1.4293,-4.036 -5.236,-3.51467 -7.4773,-5.32 -2.2174,-1.78667 -5.0147,-2.88534 -7.628,-4.13867 -2.6974,-1.29733 -5.4814,-2.41733 -8.2267,-3.61333 0.06,-0.28534 0.12,-0.56934 0.1787,-0.85467 2.7933,0.42267 5.5853,0.84267 9.096,1.37467 -1.264,-2.79867 -3.4774,-2.83867 -4.9027,-3.89734 -1.5573,-1.16133 -3.5493,-1.97333 -2.1413,-4.57599 -3.28,-1.56534 -6.328,-3.02267 -9.752,-4.65734 4.668,-3.31866 9.984,-1.80533 14.512,-3.27333 0.024,-0.304 0.045,-0.608 0.071,-0.91067 -1.8147,-1.00133 -3.632,-2.00266 -5.6427,-3.112 1.8293,-2.21333 5.084,-2.16666 6.424,-5.2 -2.8107,-0.452 -5.1427,-0.82666 -7.4773,-1.20266 10e-4,-0.248 0,-0.496 0.01,-0.744 0.8226,-0.0653 1.6493,-0.11334 2.4693,-0.20134 0.94,-0.1 2.4,0.0987 2.7267,-0.412 2,-3.136 5.244,-2.38 8.0826,-2.91333 0.6094,-0.11467 1.1987,-0.336 2.6734,-0.76267 -5.324,-2.92266 -10.8027,-3.44 -15.0094,-6.92533 7.3507,-1.47467 14.7854,1.76267 22.6814,-0.35067 -2.6907,-2.51866 -5.536,-3.22266 -8.4107,-3.92 -2.9093,-0.70533 -5.7933,-1.51733 -8.5733,-2.25333 -0.01,-2.456 1.08,-2.464 2.4653,-1.896 2.548,1.04533 5.124,1.76267 8.576,0.89067 -2.8907,-2.07067 -5.784,-2.26667 -8.436,-3.07067 -1.0547,-0.32 -2.1733,-0.41867 -3.2373,-0.708 -1.6387,-0.44533 -2.5974,-1.46933 -2.5307,-3.47733 0.3973,-0.21467 0.832,-0.61467 1.3187,-0.69067 7.772,-1.22267 15.5546,-2.39467 23.328,-3.608 0.944,-0.148 1.8506,-0.50933 2.788,-0.7 1.432,-0.29067 2.8733,-0.52933 4.3173,-0.76667 0.2653,-0.0453 0.5987,0.12667 0.8187,0.024 4.5746,-2.15733 9.524,-0.408 14.2053,-1.392 0.38,-0.08 0.7267,-0.32666 1.404,-0.64266 -1.9973,-3.24667 -6.236,-1.51067 -9.0053,-4.31467 5.1186,-0.192 9.64,1.072 14.8026,-0.005 -3.676,-3.43334 -7.2626,-5.356 -11.3813,-5.85067 -2.2813,-0.27467 -3.108,-1.35067 -3.528,-3.52533 0.2067,-0.156 0.504,-0.55867 0.8613,-0.62134 7.16,-1.29333 14.2894,-2.89466 21.5054,-3.728 10.9666,-1.26266 21.9866,-2.092 33.0026,-2.87333 2.9267,-0.20667 5.7174,-0.53733 8.4454,-1.63467 1.7373,-0.7 4.1533,-0.46533 3.3773,-3.38 11.3227,-0.312 22.076,-0.744 32.8333,-0.86266 8.008,-0.088 16.02,0.224 24.028,0.36133 4.2707,0.0733 8.54,0.216 12.808,0.216 2.4947,0 3.1387,-0.632 3.7654,-3.45067 3.008,-13.5 5.896,-27.02533 8.9946,-40.504 3.164,-13.74799 6.516,-27.45333 9.8014,-41.17199 2.932,-12.23734 5.8133,-24.48534 8.8693,-36.68934 1.244,-4.956 3.044,-9.772 4.328,-14.72 6.22,-23.96133 12.364,-47.944 18.4933,-71.93066 1.0934,-4.28 1.9587,-8.62667 2.9894,-12.93333 0.2,-0.84 0.6706,-1.61334 1.3693,-3.24 1.316,3.70666 -0.564,7.2 2.252,10.22666 0.724,-0.94666 1.6,-1.64 1.8653,-2.50666 0.876,-2.90667 1.5387,-5.88 2.272,-8.84 0.2547,-1.02667 0.472,-2.06667 1.3867,-3.12 0.1013,1.65333 0.096,3.30666 0.3373,4.93333 0.2334,1.56 0.724,3.08 1.1014,4.61333 0.3266,-0.0133 0.652,-0.0267 0.976,-0.04 0.4026,-2.32 0.8026,-4.65333 1.2013,-6.98666 1.4253,3.73333 -0.232,7.93333 2.2573,11.89333 1.896,-3.28 1.6614,-6.69333 2.6267,-9.77333 0.9613,-3.06667 0.093,-6.54667 2.3213,-9.4 0.7547,5.66666 0.2587,11.36 0.784,16.97333 0.524,5.62667 -0.192,11.37333 1.3574,16.96 2.5866,-4.33333 1.5653,-9.44 3.9293,-13.73333 2.564,18.70666 1.2227,37.55199 2.4253,56.47333 0.316,-0.53067 0.8307,-1.032 0.912,-1.596 0.66,-4.512 1.1827,-9.044 1.8494,-13.55734 0.7,-4.744 1.5133,-9.472 3.0453,-14.09333 -0.4533,4.744 -0.8413,9.49467 -1.3827,14.22667 -0.5493,4.808 -1.5213,9.584 -1.808,14.40533 -0.2786,4.68267 -2.9866,9.16667 -1.2053,14.04133 6.4933,-17.836 7.8827,-36.86 13.1426,-55.35333 2.42,4.05334 -1.8346,7.57334 0.2414,12.24 1.0293,-2.89333 1.864,-4.94666 2.4786,-7.05333 1.2747,-4.38667 2.4227,-8.8 3.6414,-13.18667 0.1826,-0.66666 0.2693,-1.50666 0.72,-1.90666 2.184,-1.97334 2.924,-4.66667 3.6733,-7.30667 0.712,-2.50667 1.9107,-4.04 4.7,-3.05333 1.072,-1.52 1.9947,-2.81334 3.496,-4.92 0.6107,1.88 1.2627,2.94666 1.2267,4 -0.056,1.68 -0.5094,3.14666 1.6693,4.01333 0.6733,0.26667 0.8227,1.85333 1.2787,3 1.4693,-0.52 2.7213,-0.97333 4.5346,-1.62667 0.3214,2.25334 0.6854,4.22667 0.8667,6.21334 0.4027,4.33333 0.9067,4.89333 5.1093,5.45333 1.0774,0.14667 2.1387,0.42667 3.2507,0.65333 1.776,-2.18666 3.5827,-4.41333 5.716,-7.04 4.0213,4.06667 3.3373,9.88 6.528,14.29334 0.88,-1.48 1.54,-2.57334 2.452,-4.10667 1.768,4.49333 0.7187,9.12 2.2613,13.36 3.2494,-7.32 6.9587,-14.36 7.64,-22.81333 2.1587,1.24 2.0747,3.14666 2.2534,4.76 0.636,5.77333 1.1386,11.56 1.6813,17.34666 0.128,1.33334 0.22,2.66667 0.3493,4.24933 1.8014,-1.58266 1.804,-1.58266 3.2547,-7.74266 0.6213,-2.64 1.2267,-5.28 2.5867,-7.96 0.2053,0.66667 0.452,1.32 0.6133,1.98667 2.0053,8.37333 2.928,16.89733 3.4173,25.45466 0.93739,16.36267 -0.5,32.61067 -2.716,48.816 -3.2053,23.444 -7.2266,46.736 -12.176,69.88 -3.236,15.14666 -6.06,30.38133 -9.052,45.58133 -0.2346,1.204 -0.3133,2.43867 -0.4813,3.78667 2.5027,1.32133 5.0747,1.44666 7.6707,1.584 6.8826,0.368 13.7573,0.83066 20.63732,1.212 10.87467,0.6 21.752,1.09866 32.62,1.78666 4.52533,0.28534 9.024,0.98667 13.54133,1.42 11.40133,1.092 22.8,2.25334 34.22,3.14 3.67733,0.284 7.41733,-0.25466 11.128,-0.30266 1.35333,-0.016 2.88533,-0.0387 4.03333,0.54266 2.564,1.3 5.088,1.10534 7.672,0.45734 2.90267,-0.72667 5.708,-0.728 8.54267,0.40133 1.12,0.448 2.424,0.51867 3.65467,0.59067 3.3,0.18933 6.604,0.30266 9.904,0.408 1.22666,0.0413 2.56533,0.292 3.65733,-0.0973 1.69333,-0.60533 3.05867,-0.98266 4.496,0.552 0.46,0.492 1.54267,0.52 2.34933,0.54667 3.45467,0.10667 6.908,0.16667 10.36534,0.17467 1.04133,0.003 2.312,0.172 2.576,-1.79334 -2.156,-1.74666 -5.052,0.208 -7.44134,-1.09066 0.63467,-2.18534 2.424,-1.90934 4.01867,-1.968 4.448,-0.15467 4.41733,-0.15467 5.38533,-4.39467 6.27734,-27.508 12.49467,-55.03066 18.89334,-82.51066 2.47866,-10.63734 5.312,-21.19467 8.104,-31.75734 4.97866,-18.84266 10.20933,-37.62133 15.02533,-56.50533 4.10133,-16.088 7.75466,-32.27466 11.65066,-48.408 0.42934,-1.77333 0.61734,-3.70666 2.16134,-5.77333 1.23733,3.44 -0.62667,6.94667 2.008,9.6 3.06933,-1.34667 2.56666,-4.42667 3.38533,-6.69333 0.86133,-2.38667 1.13867,-4.98667 2.104,-7.4 0.47467,3.04 0.95067,6.08 1.552,9.92 2.32667,-2.44 1.53333,-4.98667 2.61333,-7.92 0.876,4.54666 -0.248,8.42666 1.84134,12.45333 0.58933,-1.24 1.14266,-1.97333 1.29066,-2.78667 0.816,-4.49333 1.512,-9 2.304,-13.49333 0.19467,-1.10667 0.58534,-2.17333 0.888,-3.26667 0.36267,0.0533 0.728,0.10667 1.09334,0.16 0.0787,5.69334 -0.13734,11.42667 0.31866,17.09334 0.44134,5.49333 -0.66,11.2 1.68667,16.96 1.04267,-2.56 0.95067,-2.54667 -0.0573,-6.38667 -0.25334,-0.97333 0.0187,-2.29333 0.512,-3.2 0.80533,-1.48 1.98933,-2.76 3.46266,-4.72 1.57867,14.92 1.36667,29.29333 1.82534,43.78133 0.51333,-1.52 1.152,-3.01333 1.51866,-4.568 1.56134,-6.59467 2.90667,-13.24 4.58134,-19.8 2.56266,-10.05333 5.26133,-20.06666 8.06533,-30.04 0.612,-2.18666 1.22133,-4.68 3.996,-5.17333 0.596,-2.28 -1.95867,-4.54667 0.59467,-6.42667 1.204,2.10667 0.984,4.18667 0.328,6.61334 -1.58534,5.86666 -2.70134,11.85333 -4.03867,17.77333 -0.176,0.78667 -0.308,1.93333 -0.83333,2.21333 -2.84,1.52 -2.14934,4.22667 -2.432,6.57334 -0.37867,3.13333 -0.60134,6.28 -0.952,9.42666 -0.304,2.70667 -0.69334,5.41334 -1.04534,8.12 0.34267,0.08 0.684,0.16 1.024,0.25334 0.65067,-2.09334 1.32134,-4.17334 1.94534,-6.28 0.62933,-2.10667 1.216,-4.24 1.90933,-6.68 1.90533,1.88 0.63333,3.6 0.28133,5.30666 -0.348,1.68 -0.528,3.41334 -0.78133,5.12 0.25867,0.08 0.516,0.17334 0.776,0.25334 0.4,-0.6 0.98133,-1.16 1.17733,-1.81334 1.67867,-5.69333 3.28934,-11.41333 4.91334,-17.13333 0.116,-0.38667 0.0627,-0.92 0.30666,-1.18667 2.70934,-2.94666 3.38267,-6.86666 5.104,-10.26666 0.54934,-1.08 2.65334,-1.38667 4.604,-2.30667 0.42267,-0.61333 1.25467,-1.81333 2.13334,-3.08 0.52533,0.58667 1.96666,5.37333 2.22266,7.14667 1.26667,-1.32 2.224,-2.30667 3.51867,-3.65334 -0.18267,2.2 -0.33467,4.04 -0.496,5.97334 2.68533,0.28 1.95867,-2.77334 3.74933,-3.44 0.52134,3.65333 1.03067,7.22666 1.53867,10.8 0.248,0.04 0.49867,0.08 0.74667,0.10666 0.496,-2.05333 0.992,-4.10666 1.65866,-6.85333 0.688,1.17333 1.084,1.85333 1.76534,3.01333 0.46933,-1.26666 0.83333,-2.2 1.156,-3.14666 0.304,-0.88 0.56666,-1.78667 1.604,-2.61334 -0.13867,1.34667 -0.19067,2.69334 -0.43867,4.01334 -0.35867,1.89333 -0.812,3.78666 -1.31467,5.65333 -0.6,2.22667 0.29334,3.44 2.69734,3.98667 1.79466,-2.17334 3.68266,-4.46667 5.81333,-7.05334 3.94667,4.08 3.37867,9.66667 6.408,14.16 0.92,-1.37333 1.68,-2.52 3.012,-4.52 0.47333,5.14667 0.86667,9.45334 1.26133,13.74667 2.836,-3.28 3.96534,-7.18667 5.316,-10.93333 1.34,-3.70667 2.212,-7.6 3.52267,-12.22667 2.632,6.05333 2.2,11.98667 3.02133,17.64 0.29067,0.04 0.584,0.08 0.876,0.12 0.83334,-2.53333 1.66534,-5.06667 2.49867,-7.6 0.20267,0.0267 0.40667,0.0533 0.60933,0.0667 -0.20933,2.56 -0.41733,5.10666 -0.624,7.66666 0.18934,0.04 0.37734,0.08 0.56667,0.12 0.31333,-1.22666 0.60667,-2.46666 0.94667,-3.68 0.30933,-1.12 0.67199,-2.21333 1.28666,-4.22666 2.792,9.01333 3.08267,17.44266 4.98,25.67199 2.388,-8.26533 4.77733,-16.52533 7.26133,-25.12533 2.24,0.4 3.52934,-0.77333 3.19067,-3.05333 -0.31333,-2.12 0.656,-3.62667 1.472,-5.4 1.38533,-2.98667 2.392,-6.16 3.45867,-9.29333 0.74533,-2.18667 1.32266,-4.42667 2.62533,-6.62667 0,0.65333 0.1,1.32 -0.0147,1.96 -1.91866,10.6 -4.08266,21.17333 -5.75333,31.81333 -2.576,16.412 -7.07733,32.38533 -10.45867,48.60667 -3.94933,18.93466 -8.23066,37.80533 -11.06533,56.96933 -1.49466,10.116 -3.924,20.09333 -5.93866,30.13467 -3.80667,18.98799 -7.62267,37.97599 -11.42,56.96799 -0.128,0.64134 -0.1,1.316 -0.15334,2.13334 1.76134,0.272 3.332,0.51466 5.45067,0.84266 -1.82533,2.452 -4.07733,1.17734 -6.50533,1.828 -0.652,2.984 -1.37734,6.29467 -2.19334,10.03067 4.63734,0.344 9.11334,0.64 13.58267,1.01467 9.64133,0.81066 19.27466,1.72266 28.91866,2.456 3.08667,0.236 6.20667,0.0373 9.85334,0.0373 -3.30534,1.71467 -6.08134,3.156 -9.48,4.91867 3.69866,3.44533 7.36533,1.316 11.63333,1.90266 -1.796,0.57467 -2.696,1.03867 -3.63333,1.128 -2.364,0.22267 -2.91467,3.43067 -5.756,3.12534 -2.28534,-0.24667 -4.66667,0.272 -6.98934,0.564 -1.48266,0.18666 -1.472,0.27866 -2.80133,2.364 3.15467,0.352 6.088,0.784 9.03333,0.97866 3.85867,0.252 7.73734,0.212 11.588,0.52134 1.27467,0.10133 2.82,0.57066 3.668,1.432 1.92,1.95466 4.23467,2.58 6.73734,2.68933 8.41466,0.36533 16.836,0.63733 25.256,0.908 2.072,0.068 4.14666,-0.012 6.22133,-0.001 2.59733,0.012 5.16133,-0.232 7.51467,1.54666 1.06266,0.804 2.77866,0.744 4.6,1.16934 -1.544,0.74666 -2.62934,1.272 -3.71467,1.796 3.856,1.40133 6.66933,4.796 11.01733,3.90266 2.53734,-0.52133 3.77467,2.14667 5.89067,3.07467 -8.78133,-0.34133 -17.21333,1.42667 -26.104,3.27733 -0.21733,0.88 -0.52267,2.136 -0.93333,3.80934 4.49466,0 8.56,0 13.312,0 -1.244,0.784 -2.01067,1.26533 -3.45467,2.17333 4.40667,-0.11733 8.12133,-0.25733 11.84,-0.308 3.68933,-0.0507 7.38,-0.0107 11.06933,-0.0107 0.0293,0.356 0.0573,0.71334 0.0867,1.068 -3.25333,0.376 -6.5,0.90667 -9.76533,1.08534 -4.67734,0.256 -9.37734,0.13333 -14.048,0.44533 -1.22134,0.0813 -2.41867,1.10133 -3.54934,1.81467 -1.308,0.82666 -2.444,1.30266 -4.116,0.60533 -1.24266,-0.51867 -2.83333,-0.27067 -4.26933,-0.252 -1.07333,0.0147 -2.164,0.12133 -3.20933,0.34933 -0.852,0.18134 -1.64934,0.60934 -2.40934,0.90134 0.31334,2.11066 1.74934,2.048 2.91334,2.124 4.13333,0.268 8.27733,0.40933 12.41333,0.62933 2.38267,0.12533 4.444,-0.28267 5.19733,-3.3 2.272,2.08 5.97867,-1.18133 7.092,2.76133 1.79734,-0.66133 3.34,-1.22666 4.88267,-1.79333 0.12933,0.28133 0.26133,0.56 0.38933,0.83867 -0.684,0.49466 -1.36933,0.99066 -2.05466,1.48533 0.11066,0.24267 0.19066,0.65867 0.32,0.67467 2.444,0.29866 4.888,0.57066 7.33733,0.808 0.98267,0.0947 1.97333,0.0973 3.15733,0.15066 -0.76666,2.20267 -4.24,0.21467 -3.74266,3.43734 1.36133,0.47866 2.83333,0.99733 4.89866,1.72533 -3.25333,1.936 -8.70666,0.27867 -7.89333,6.196 -2.83067,1.60666 -7.50533,-0.732 -9.04133,3.98533 1.61066,0.54267 3.044,1.084 4.51466,1.50267 1.43867,0.408 2.712,0.44 3.23067,-1.48134 0.16,-0.59866 1.00933,-1.01066 1.648,-1.60666 0.63867,1.48533 1.252,2.616 1.61733,3.82 0.664,2.18266 2.248,2.476 4.19734,2.44666 2.16666,-0.0307 4.336,0.16 6.50666,0.19334 2.616,0.036 5.23067,0.008 7.95334,0.008 0.42,-1.13867 0.73466,-2 1.228,-3.33334 0.91466,0.312 2.41999,0.384 2.67999,0.99067 1.12267,2.61333 2.94134,1.87067 4.84533,1.45333 1.25067,-0.27733 2.54134,-0.36133 4.15867,-0.57733 -0.62267,4.53333 -5.96266,2.108 -6.41866,5.608 -8.17333,-1.40933 -20.24133,0.456 -24.35467,3.86667 0.81867,0.212 1.42267,0.51333 2.01467,0.49466 2.48,-0.08 5.00533,-0.004 7.42133,-0.46533 2.98934,-0.568 5.24934,0.37467 7.80267,2.72 -1.34933,0.11067 -2.22667,0.12533 -3.08533,0.264 -3.108,0.50533 -6.27467,0.51067 -9.204,2.13733 -1.48,0.82267 -3.48,0.732 -5.25467,0.98667 -1.30533,0.18667 -2.91067,-0.27733 -3.10267,1.85067 -0.024,0.252 -0.80266,0.61333 -1.23733,0.62266 -4.14933,0.0907 -7.936,1.09867 -11.85733,2.7 -3.84667,1.57067 -8.368,1.57334 -12.61867,2.05734 -8.20933,0.93066 -16.424,1.82933 -24.65867,2.51066 -3.696,0.30667 -7.43733,0.052 -11.45466,0.052 -0.21067,1.17867 -0.38934,2.16534 -0.63467,3.532 1.532,0.156 2.74,0.22667 3.932,0.41067 1.31467,0.20133 2.69333,0.30933 3.904,0.80133 2.44533,0.99867 4.728,0.52267 6.56667,-0.97466 1.308,-1.06667 2.56266,-1.384 4.11066,-1.52934 9.07334,-0.85733 18.14,-1.812 27.216,-2.66266 2.296,-0.216 4.508,-0.43734 6.74934,1.07466 1.052,0.70934 3.18666,0.13334 4.732,-0.25466 6.688,-1.676 13.33333,-3.528 20.01733,-5.232 0.83733,-0.21467 1.80267,0.0693 2.88133,0.72533 -2.51866,1.528 -5.20533,2.84267 -7.50933,4.644 -2.31733,1.81333 -5.868,1.64133 -7.80667,5.02933 1.52534,-0.0733 2.58667,-0.0387 3.62,-0.188 2.69334,-0.38933 5.27467,-1.104 8.096,-0.0467 1.31067,0.492 3.10134,-0.30134 5.064,-0.56667 -0.93866,2.88267 -3.10533,3.66267 -5.18,4.636 -2.73866,1.28 -5.38133,2.76667 -8.12133,4.04533 -1.06533,0.496 -2.264,0.75867 -3.432,0.968 -2.54667,0.45334 -5.112,0.812 -7.67333,1.18934 -0.652,0.0973 -1.31734,0.104 -1.976,0.17466 -1.35067,0.144 -2.816,0.0187 -4.02667,0.512 -2.82667,1.156 -5.62667,2.16134 -8.736,2.16667 -0.708,0 -1.41467,0.57467 -2.45333,1.02933 1.29466,1.49467 2.69333,1.26667 3.96133,1.23067 5.66133,-0.152 11.31867,-0.37867 16.98,-0.54267 2.496,-0.072 4.896,-0.0573 6.78533,2.17334 1.50934,1.78133 3.86667,1.30533 5.36667,0.29466 2.808,-1.896 5.732,-0.92533 9.11867,-1.55066 -1.66534,1.636 -2.848,2.84266 -4.088,3.99066 -0.38134,0.35467 -0.89334,0.74667 -1.37734,0.79334 -8.25333,0.78266 -16.02133,3.752 -24.096,5.32666 -1.99066,0.38667 -1.968,0.50134 -3.39066,2.87734 1.06133,0.0467 1.96666,0.25866 2.79733,0.0947 4.472,-0.88533 8.93467,-1.808 13.376,-2.832 1.72,-0.39733 3.256,-0.42 4.77867,0.908 -1.16534,2.22934 -3.24,2.81734 -5.444,3.10267 -11.248,1.45733 -22.27467,4.004 -33.248,6.80267 -0.70934,0.18 -1.30667,0.796 -2.08,1.288 1.01333,1.66266 2.27066,1.01066 3.41733,0.884 2.33467,-0.25867 4.65867,-0.66 6.776,0.97466 0.51067,0.396 1.448,0.23867 2.18933,0.33867 0.072,-0.86 0.144,-1.72133 0.21867,-2.60267 4.476,-0.852 9.064,-1.728 14.16,-2.7 -1.58267,2.75334 -4.01867,2.70934 -6.01467,3.31467 -1.46666,0.444 -2.64266,0.74533 -3.73733,2.13067 -0.81867,1.03333 -2.86533,1.49333 -4.376,1.512 -4.768,0.0573 -8.19733,3.33466 -12.59333,4.176 0.0507,0.37733 0.10133,0.756 0.15466,1.132 1.08934,0 2.316,0.328 3.25067,-0.0533 5.83867,-2.38533 11.67867,-0.62533 17.51467,-0.196 1.09466,0.08 2.204,0.496 3.26666,0.38667 3.13467,-0.32267 5.19467,1.13733 7.04267,3.88933 -2.58667,0.632 -4.94267,1.252 -7.31467,1.77867 -7.408,1.64533 -14.808,3.32667 -22.23866,4.86 -6.764,1.39467 -13.55867,2.65467 -20.35067,3.90133 -11.27467,2.068 -22.52133,4.31067 -33.84667,6.04267 -9.536,1.45867 -19.16666,2.292 -28.75333,3.39733 -0.41333,0.0467 -0.844,0.16 -1.24,0.092 -7.03466,-1.18533 -13.80933,1.15467 -20.73066,1.55334 -6.19734,0.356 -12.37467,1.144 -18.57867,1.48 -2.236,0.12133 -3.244,0.94533 -3.61333,3.04 -1.24267,7.08133 -2.56134,14.148 -3.82667,21.22666 -2.916,16.33733 -5.9,32.66267 -8.708,49.01867 -5.07733,29.57466 -10.132,59.15466 -15.028,88.75866 -3.24933,19.648 -6.25067,39.339999 -9.28933,59.022669 -3.06134,19.82266 -6.028,39.6599998 -9.04667,59.492 -1.084,7.10533 -2.22133,14.20533 -3.28,21.31466 -0.156,1.044 -0.0227,2.13067 -0.0227,3.132 5.14534,0 10.08934,0.08 15.028,-0.0173 8.55734,-0.16934 17.116,-0.45467 25.672,-0.676 1.55467,-0.0387 2.77467,0.20933 3.76534,1.84533 1.02666,1.696 2.62933,1.54133 3.41066,-0.35733 0.74267,-1.80134 1.86267,-2.10667 3.47067,-2.26267 6.064,-0.58933 12.12133,-0.72267 18.19867,-0.23467 1.64133,0.132 3.31333,-0.0387 4.964,-0.15333 1.98533,-0.14 3.69066,0.14 5.41733,1.44267 1.188,0.89333 3.04533,1.21733 4.60933,1.236 6.36534,0.072 12.73467,0.0107 19.1,-0.15334 15.49067,-0.396 30.98,-0.90933 46.47067,-1.31066 5.19866,-0.136 10.14933,-1.028 14.64266,-3.81734 0.43067,-0.26933 1.02,-0.28266 1.84267,-0.0333 -0.79733,0.67067 -1.596,1.34133 -2.86933,2.41067 1.36266,0.44266 2.18933,0.91466 3.03333,0.94533 2.34533,0.0907 4.70667,0.124 7.04533,-0.056 2.66,-0.20267 5.23067,-0.21733 7.71067,0.98133 2.27067,1.09467 4.468,0.984 6.72933,-0.33066 1.12134,-0.652 2.69467,-1.26134 3.856,-0.99067 6.61334,1.53867 13.252,0.55733 19.86534,0.43733 18.396,-0.33866 36.78799,-0.93733 55.18399,-1.184 4.38267,-0.0573 8.80267,0.70134 13.15733,1.39067 3.44934,0.544 6.80534,0.784 10.26667,0.13333 4.73467,-0.888 9.508,-1.56133 14.268,-2.29333 0.36667,-0.0547 0.776,0.16 1.24,0.70533 -2.73467,0.56 -5.468,1.14134 -8.208,1.67467 -3.25733,0.63067 -6.52667,1.21333 -9.788,1.83333 -3.16533,0.60134 -6.108,1.62134 -9.504,-0.17066 -2.12667,-1.12134 -5.15867,-0.812 -7.76667,-0.69734 -15.20266,0.66534 -30.444,0.704 -45.56799,2.772 -4.36533,0.596 -8.77733,0.86534 -13.168,1.272 -0.688,0.064 -1.44667,0.24134 -2.06267,0.0347 -7.35333,-2.47333 -14.816,-0.788 -22.21466,-0.52533 -14.50667,0.51333 -29.00267,1.36133 -43.50667,1.928 -10.35733,0.404 -20.724,0.49866 -31.08133,0.87066 -11.19733,0.39867 -22.39333,0.88934 -33.58267,1.476 -10.364,0.544 -20.71733,1.26 -31.07466,1.924 -0.656,0.044 -1.3,0.28934 -2.956,0.67334 1.56933,0.55066 2.22133,0.98 2.876,0.98266 14.52933,0.028 29.05866,0.0693 43.58533,-0.0253 6.48267,-0.0413 12.968,-0.316 19.44533,-0.59867 4.14267,-0.18 8.27467,-0.58533 12.41333,-0.864 1.62667,-0.108 3.25867,-0.14666 5.252,-0.236 0.13867,1.91067 0.25067,3.48267 0.39467,5.49734 9.37067,-1.056 18.60267,-0.71067 28.15867,0.216 -1.668,3.844 -6.012,0.948 -7.55867,4.256 1.88133,1.89733 3.904,0.368 5.73733,0.164 2.02134,-0.22134 3.99334,-0.87467 6.24934,-1.40267 -0.34534,-1.05867 -0.57334,-1.75333 -0.90134,-2.75733 0.968,0.16 2.07734,0.005 2.46267,0.46133 2.04667,2.41733 4.57867,2.00267 7.216,1.63467 10.26533,-1.42934 20.54267,-2.77867 30.80933,-4.208 3.26534,-0.456 6.50267,-1.104 9.76534,-1.588 3.91466,-0.57867 7.84,-1.07734 11.76133,-1.61067 0.0533,0.36 0.10533,0.71867 0.15867,1.07867 -3.92667,0.50533 -7.84,1.228 -11.78,1.46133 -4.62534,0.27733 -8.768,1.70667 -12.996,3.87867 1.33333,1.96933 2.95066,1.384 4.31333,1.23066 5.76933,-0.65066 11.53733,-1.34533 17.288,-2.16266 12.32533,-1.75334 24.64133,-3.58667 36.95866,-5.412 0.75333,-0.112 1.47333,-0.44534 2.16133,-1.42267 -4.784,-0.104 -9.56933,-0.20667 -14.356,-0.31067 -0.008,-0.38533 -0.0187,-0.77333 -0.0293,-1.16 1.53067,-0.0427 3.06267,-0.14266 4.592,-0.11333 4.92667,0.0973 9.88667,-0.56533 14.71734,1.308 1.412,0.54533 3.29733,0.0947 4.92266,-0.17067 8.736,-1.42533 17.452,-2.98266 26.18934,-4.40133 6.13466,-0.99733 12.29733,-1.824 18.44266,-2.76933 4.232,-0.65334 8.45067,-1.38934 12.68134,-2.064 0.65733,-0.104 1.33733,-0.0733 2.43866,-0.12667 -1.04133,2.004 -2.64533,2.33067 -4.16666,2.61333 -6.11867,1.136 -12.24,2.26667 -18.38267,3.272 -10.64533,1.73867 -21.30533,3.372 -31.95467,5.072 -5.31866,0.84934 -10.776,1.24534 -15.91733,2.72667 -11.91467,3.43733 -24.364,3.20533 -36.39066,5.80267 -4.028,0.86933 -8.24267,0.87333 -12.37334,1.28666 -4.504,0.45067 -8.99466,0.928 -13.52666,1.19334 -7.00134,0.41066 -13.92134,2.096 -20.888,3.148 -4.46667,0.67466 -8.948,1.29066 -13.44134,1.752 -10.996,1.13066 -22.00666,2.12933 -33.00533,3.24933 -1.416,0.14533 -3.076,0.17467 -3.912,2.092 1.89067,2.064 4.42,2.43467 6.82,2.37333 8.572,-0.21466 17.13867,-0.67066 25.708,-1.044 1.51867,-0.0653 3.03467,-0.24533 4.55333,-0.256 6.496,-0.0453 12.992,-0.0613 19.48667,-0.0427 1.15333,0.001 2.308,0.208 3.56,1.01866 -0.648,0.356 -1.26933,0.944 -1.95067,1.024 -7.40133,0.86134 -14.796,2.11867 -22.22133,2.34267 -13.01467,0.392 -25.984,1.09467 -38.89733,2.76533 -2.744,0.352 -5.512,0.50134 -8.27067,0.70267 -2.18533,0.15867 -4.464,-0.112 -5.92533,2.168 -0.29067,0.456 -1.20933,0.58933 -1.868,0.712 -1.084,0.20533 -2.19067,0.34933 -3.29467,0.40267 -7.112,0.344 -14.29866,-0.14667 -21.216,2.22266 -1.08666,0.372 -2.42666,0.13334 -3.62933,0.009 -6.76,-0.7 -13.512,-1.25334 -20.22,0.36133 -0.852,0.204 -2.2,0.64133 -2.32267,1.19067 -0.47066,2.13333 -2.012,1.88933 -3.50933,2.08266 -6.16,0.78534 -12.30533,1.68534 -18.46933,2.428 -2.316,0.27734 -4.66934,0.27334 -7.00534,0.33467 -2.46666,0.064 -4.88666,0.26933 -7.09333,1.41733 -0.252,1.81734 0.69733,2.754671 2.052,2.568 2.45733,-0.34266 4.588,0.269341 6.828,1.114671 1.06533,0.39867 2.44933,-0.0373 3.68933,-0.116 1.99467,-0.12533 3.85067,0.0707 5.324,2.40667 -4.12533,1.31333 -8.496,1.212 -12.58933,3.75333 1.516,0.988 2.68,1.74267 4.35733,2.83333 -2.04666,0.49334 -3.57733,0.864 -5.47333,1.32134 2.06133,2.32133 4.592,2.08666 6.916,2.16 13.39467,0.436 26.79733,0.648 40.18667,1.216 13.25466,0.56266 26.496,0.684 39.73333,-0.20534 11.70133,-0.78533 23.39466,-1.69866 35.09333,-2.54933 3.368,-0.24667 6.73867,-0.48267 10.14133,-0.456 -4.80133,2.18533 -9.904,2.89333 -15.048,3.25733 -5.532,0.392 -10.99866,1.04267 -16.30133,2.74934 -0.512,0.164 -1.16933,0.384 -1.604,0.20266 -4.77733,-1.99733 -9.572,-0.22533 -14.34133,-0.0613 -5.512,0.18667 -11.016,0.69333 -16.52,1.116 -6.75333,0.52 -13.50133,1.09733 -20.252,1.652 -2.616,0.21467 -5.24,0.36267 -7.84533,0.66667 -8.644,1.00666 -17.272,2.148 -25.924,3.064 -2.872,0.30133 -5.80267,-0.0173 -8.70134,0.1 -4.55733,0.18533 -9.11333,0.47866 -13.66533,0.78266 -0.47067,0.0307 -0.916,0.43334 -1.608,0.784 1.89067,2.99734 5.49333,0.30667 7.648,2.748 -1.808,1.33067 -3.76267,1.256 -5.544,1.45334 -3.81867,0.42533 -7.65733,0.708 -11.49333,0.90933 -5.252,0.27467 -10.50667,0.46933 -15.76267,0.59067 -1.89067,0.0427 -3.35867,0.26933 -3.04133,3.15333 3.99733,0.86267 8.05733,1.40667 12.14,-0.048 2.39866,-0.856 5.964,0.012 7.04133,2.236 0.936,1.93467 2.49867,2.00267 4.14533,2.024 8.856,0.12667 17.71067,0.148 26.56667,0.31067 4.83067,0.088 9.656,0.37866 14.48667,0.59066 3.316,0.14267 6.63866,0.22134 9.94533,0.49467 1.88933,0.15333 3.98,0.204 3.71467,3.22667 -0.0653,0.74 1.22,1.60133 1.95866,2.49866 -0.79866,1.84267 -2.59466,1.38134 -3.94266,1.616 -2.172,0.37334 -4.41734,0.31334 -6.59334,0.67467 -0.76133,0.12667 -1.40666,0.95733 -2.10266,1.46667 0.69066,0.54133 1.32933,1.44 2.08533,1.55333 2.176,0.324 4.404,0.30133 6.60533,0.47067 1.452,0.11333 2.896,0.324 4.35867,0.864 -3.56133,1.36 -6.78533,2.99466 -10.80267,3.112 -13.68,0.40133 -27.34266,1.36933 -41.01466,2.07733 -6.496,0.33866 -12.996,0.604 -19.49734,0.84933 -1.84266,0.068 -3.36266,0.54933 -4.96133,1.652 -1.47867,1.02133 -3.52667,1.43333 -5.37733,1.65733 -3.98534,0.484 -4.17867,0.5 -4.87867,4.23467 -3.18266,16.98667 -6.26,33.99467 -9.56666,50.956 -1.82667,9.364 -4.012,18.65733 -6.06534,27.97733 -2.856,12.96534 -5.648,25.94667 -8.63866,38.88134 -3.33334,14.41999 -6.85467,28.79599 -10.30667,43.18933 -2.776,11.56 -5.492,23.13733 -8.388,34.668 -1.28,5.09066 -3.092,10.04933 -4.408,15.132 -6.20933,23.96533 -12.348,47.94799 -18.46933,71.93466 -1.128,4.42667 -2.05067,8.89333 -3.11867,13.33333 -0.16533,0.69334 -0.59733,1.32 -1.208,2.61334 -1.424,-3.49334 0.608,-7.02667 -2.34267,-9.96 -3.76266,4.25333 -3.22,9.81333 -5.15333,15.33333 -0.58533,-4.08 -1.02667,-7.13333 -1.548,-10.73333 -2.72667,2.25333 -1.216,5.17333 -2.844,7.21333 -0.47467,-3.76 0.168,-7.68 -1.53067,-12.17333 -0.716,1.42666 -1.276,2.10666 -1.41466,2.86666 -0.85067,4.76 -1.58267,9.54667 -2.41734,14.30667 -0.17066,0.96 -0.612,1.88 -1.39733,2.76 -0.83067,-11.4 -0.31733,-22.78667 -2.356,-34.02667 -1.052,1.74667 -2.45733,3.22667 -0.352,5.44 0.652,0.69334 -0.0427,3.01334 -0.608,4.4 -0.53733,1.29334 -1.70933,2.34667 -3.108,4.16 -1.55467,-14.72 -1.272,-28.94666 -2.12933,-43.23733 -0.73867,2.75067 -1.512,5.49334 -2.212,8.25467 -3.73067,14.74266 -7.43067,29.48933 -11.17867,44.22266 -0.30267,1.2 -0.948,2.30667 -1.30133,3.49334 -0.60267,2.04 -1.96,2.90666 -4.01734,2.84 l 0.0613,0.0667 c 1.33733,-6.2 2.66666,-12.41333 4.028,-18.62666 0.11333,-0.52 0.32133,-1.26667 0.69466,-1.42667 2.87734,-1.25333 2.51734,-3.96 2.35067,-6.09333 -0.29333,-3.82667 0.56533,-7.4 1.272,-11.06667 0.452,-2.34667 0.516,-4.78667 0.756,-7.17333 -0.34133,-0.0533 -0.68133,-0.10667 -1.02267,-0.16 -1.27333,4.41333 -2.54666,8.82666 -3.81466,13.22666 -1.12,-2.36 -1.06934,-2.34666 -0.552,-4.52 0.46266,-1.96 0.79466,-3.93333 1.18266,-5.90666 -0.29866,-0.10667 -0.59866,-0.2 -0.89733,-0.30667 -0.39333,0.57333 -0.96667,1.09333 -1.152,1.72 -1.70933,5.84 -3.34,11.69333 -5.02133,17.53333 -0.22667,0.78667 -0.544,1.56 -0.92,2.28 -1.052,2.05334 -2.45067,3.98667 -3.16534,6.14667 -0.916,2.78667 -2.03866,4.84 -5.26133,4.12 -0.972,1.42667 -1.79333,2.64 -2.62133,3.85333 -3.368,-1.58666 -1.01467,-4.44 -2.132,-6.97333 -1.152,0.92 -2.11334,1.68 -3.25867,2.58667 0,-1.78667 0,-3.46667 0,-5.14667 -0.20533,-0.12 -0.40933,-0.24 -0.616,-0.36 -0.93466,1.32 -1.87066,2.62667 -3.008,4.22667 -0.56133,-3.93334 -1.07866,-7.54667 -1.596,-11.17334 -0.20133,-0.0267 -0.404,-0.0667 -0.60533,-0.10666 -0.56933,2.05333 -1.13333,4.12 -1.84933,6.70666 -0.61734,-1.09333 -0.99467,-1.76 -1.704,-3.01333 -0.77467,2.26667 -1.35867,3.98667 -1.944,5.69333 -0.27467,-0.04 -0.54934,-0.0933 -0.824,-0.13333 0.112,-1.10667 0.13733,-2.24 0.35866,-3.33333 0.38934,-1.89334 0.84267,-3.78667 1.37467,-5.64 0.668,-2.34667 -0.072,-3.76 -2.688,-4.25334 -1.824,2.21334 -3.712,4.49334 -5.79867,7.01334 -4.01466,-4.08 -3.35333,-9.72 -6.46133,-14.17334 -0.896,1.41334 -1.61867,2.54667 -2.33867,3.68 -0.244,-0.0133 -0.488,-0.04 -0.732,-0.0533 -0.376,-4.28 -0.748,-8.54667 -1.15333,-13.16 -2.64667,2.93333 -5.288,10.13333 -8.61733,23.13333 -3.26934,-5.77333 -2.01467,-11.88 -4.05067,-17.45333 -0.944,2.81333 -1.88533,5.62667 -2.82933,8.44 -0.15067,-0.0267 -0.30534,-0.0533 -0.45734,-0.0667 0.19867,-2.48 0.39867,-4.97333 0.59734,-7.45333 -0.17067,-0.04 -0.33867,-0.08 -0.50934,-0.12 -0.62533,1.96 -1.25333,3.92 -1.87866,5.88 -0.24134,-0.0133 -0.484,-0.0267 -0.72667,-0.0267 -0.80667,-3.96 -1.768,-7.90666 -2.38533,-11.89333 -0.624,-4.048 -0.912,-8.14666 -1.34667,-12.224 -0.28533,-0.032 -0.57067,-0.0613 -0.856,-0.092 -2.40267,8.21867 -4.80401,16.436 -7.20541,24.64933 -0.1813,-0.14666 -0.36,-0.29333 -0.54,-0.45333 -0.8413,0.78667 -2.48,1.68 -2.396,2.34667 0.4827,3.77333 -2.056,6.45333 -3.0813,9.65333 -1.376,4.29333 -2.7827,8.58667 -4.7027,12.84 0,-0.70667 -0.1066,-1.41333 0.016,-2.09333 1.944,-10.74667 4.1307,-21.45334 5.836,-32.22667 2.5067,-15.85466 6.8347,-31.29333 10.11874,-46.96266 4.10667,-19.608 8.54667,-39.148 11.43734,-59.00534 1.37333,-9.43066 3.72666,-18.71466 5.6,-28.072 3.63866,-18.17466 7.11333,-36.38133 10.924,-54.51999 2.81066,-13.39334 6.12666,-26.68134 9.05733,-40.04934 1.63067,-7.428 2.94133,-14.92266 4.376,-22.392 0.0973,-0.51866 0.012,-1.07466 0.012,-2.15466 -5.20533,0.45466 -10.21733,1.148 -15.24267,1.26266 -5.05466,0.11334 -10.124,-0.53733 -15.184,-0.51333 -5.032,0.0253 -10.06,0.47067 -15.12534,0.25733 3.84934,-1.54666 7.90268,-1.42 11.88934,-1.73333 5.91467,-0.46667 11.836,-0.90267 17.76134,-1.25067 3.16933,-0.188 6.35333,-0.14266 9.52933,-0.23866 1.93067,-0.0573 3.876,-0.0773 5.77867,-0.35067 0.57466,-0.0827 1.03466,-0.948 1.548,-1.45733 -0.46934,-0.416 -0.88,-1.06 -1.41867,-1.19867 -0.92,-0.23867 -1.924,-0.23467 -2.89067,-0.204 -11.89333,0.4 -23.784,0.852 -35.67733,1.232 -11.47201,0.368 -22.94801,0.672 -34.42001,0.99867 -2.0014,0.0573 -4.004,0.084 -6.02,0.89333 0.9906,0.19467 1.9826,0.392 3.0346,0.6 -0.1346,0.38267 -0.1733,0.752 -0.2813,0.77333 -3.752,0.724 -7.508,1.43734 -11.276,2.08134 -0.6533,0.11333 -1.7107,0.172 -1.984,-0.192 -1.5147,-2.02534 -3.448,-0.944 -5.2533,-0.95067 -4.268,-0.016 -8.5507,0.0987 -12.8067,-0.18 -15.5933,-1.024 -31.1667,-2.34 -46.7653,-3.23867 -10.3387,-0.59733 -20.7067,-0.66933 -31.34,-0.98533 -0.1787,0.444 -0.528,1.036 -0.6534,1.672 -4.0893,20.62133 -8.044,41.26933 -12.2573,61.864 -4.712,23.03333 -9.528,46.04933 -14.5453,69.01866 -3.1547,14.45067 -6.6734,28.824 -10.2174,43.18667 -1.188,4.81067 -3.056,9.45067 -4.432,14.22 -0.9186,3.17467 -1.4053,6.47067 -2.2693,9.66267 -3.1693,11.73333 -6.4933,23.424 -9.5947,35.17333 -1.1253,4.26667 -1.7333,8.668 -2.6813,12.98667 -0.436,1.98133 -1.116,3.908 -2.1133,5.75333 3.132,-17.87467 8.52,-35.25333 11.3613,-53.75733 -2.572,1.55066 -1.6347,4.29333 -3.8227,6.308 0.6787,-3.48534 1.1494,-6.304 1.788,-9.08134 1.5467,-6.73333 3.2494,-13.43333 4.748,-20.17733 2.9694,-13.356 5.796,-26.74 8.7667,-40.09733 4.1987,-18.89333 8.564,-37.75333 12.676,-56.668 1.8747,-8.63067 3.3427,-17.348 4.896,-26.04667 0.2707,-1.51466 0.04,-3.12 -0.6947,-4.768 -0.2986,0.84 -0.6733,1.66534 -0.88,2.52667 -4.3066,18.02667 -8.6573,36.04267 -12.86,54.09333 -3.1053,13.32933 -5.9253,26.724 -9.0293,40.05333 -3.1067,13.32934 -6.3,26.63734 -9.648,39.90667 -3.9213,15.55467 -8.036,31.05867 -12.0933,46.576 -1.2494,4.77733 -2.5414,9.54267 -3.8894,14.292 -0.4453,1.564 -1.124,3.064 -2.0973,4.56133 -0.808,-2.608 -0.6133,-5.20133 -0.048,-7.80533 1.5787,-7.276 3.14,-14.556 4.7613,-21.82267 1.2027,-5.40133 2.5147,-10.776 3.7254,-16.17466 1.3906,-6.20267 2.6666,-12.43067 4.108,-18.62267 0.656,-2.81867 1.7426,-5.54133 2.3733,-8.364 2.248,-10.11067 4.324,-20.25733 6.5787,-30.36667 5.2013,-23.34533 10.4746,-46.67599 15.704,-70.01733 1.292,-5.776 2.5213,-11.56533 3.3186,-17.45866 -9.964,34.53733 -17.7893,69.61333 -26.7626,104.39466 -9.0027,34.88667 -17.5707,69.884 -26.3294,104.836 -0.2893,-0.0133 -0.5773,-0.04 -0.8653,-0.0533 -0.096,-0.66666 -0.3747,-1.37333 -0.2533,-2 1.344,-6.90666 2.6893,-13.8 4.1453,-20.68533 3.012,-14.20666 6.1427,-28.38933 9.0893,-42.61066 0.4907,-2.368 0.2507,-4.88134 0.4494,-7.32 0.1213,-1.504 0.3093,-3.024 0.6773,-4.48534 3.3613,-13.41066 6.2867,-26.95733 10.3507,-40.15466 2.3426,-7.60134 3.024,-15.41334 4.9133,-23.03734 2.424,-9.79466 4.4827,-19.68266 6.5787,-29.55466 0.5066,-2.392 2.0826,-4.88267 -0.3174,-7.34133 -0.4653,-0.476 0.1747,-2.09867 0.4067,-3.16934 3.8933,-17.97866 7.808,-35.952 11.692,-53.93333 0.2707,-1.25333 0.316,-2.556 0.4653,-3.836 -0.328,-0.0787 -0.6573,-0.156 -0.9853,-0.232 -0.5813,1.76133 -1.2907,3.496 -1.72,5.296 -2.0187,8.47467 -3.816,17.00267 -5.976,25.43733 -1.54,6.01734 -3.716,11.87067 -5.284,17.88134 -3.8413,14.71733 -7.4587,29.49333 -11.236,44.22933 -2.0587,8.036 -4.2827,16.032 -6.3867,24.05866 -2.28,8.69334 -4.456,17.41467 -6.7746,26.09867 -2.4587,9.21467 -5.1014,18.38133 -7.5387,27.604 -2.7173,10.28667 -5.32,20.604 -7.9253,30.92 -4.1654,16.49067 -8.2907,32.99466 -12.44,49.488 -0.8787,3.48 -1.64,7 -2.7347,10.42666 -0.7733,2.41334 -1.1587,5.26667 -4.2093,6 0.1026,2.14667 0.1946,4.08 0.3173,6.65334 -2.6053,-2.50667 -1.812,-4.52 -1.2413,-6.77334 1.5,-5.88 2.6706,-11.85333 3.9933,-17.78666 0.1773,-0.8 0.2493,-2 0.76,-2.26667 3.048,-1.57333 2.232,-4.44 2.5227,-6.90667 0.3226,-2.72 0.4466,-5.46666 0.7733,-8.18666 0.3733,-3.12 0.872,-6.22667 1.356,-9.6 -2.4453,0.24 -1.84,1.88 -2.228,2.85333 -0.424,1.06667 -0.7307,2.18667 -1.3987,3.21333 -0.972,-1.81333 -0.2173,-3.49333 0.2014,-5.10666 1.8426,-7.08533 4.1,-14.076 5.6706,-21.21867 1.1667,-5.30666 1.5067,-10.79466 1.72,-16.30533 -6.4506,18.54 -11.3533,37.49733 -17.072,56.39066 -0.049,-0.4 -0.16,-0.8 -0.1346,-1.18666 0.037,-0.56 0.272,-1.09334 0.2573,-1.64 -0.057,-2.02667 -0.22,-4.05334 -0.268,-6.09334 -0.032,-1.36 -0.128,-2.76 0.1293,-4.08 2.7987,-14.23999 5.4747,-28.51066 8.552,-42.69333 3.4907,-16.08133 7.3547,-32.07866 11.0547,-48.116 1.9267,-8.34666 3.8827,-16.68666 5.76,-25.044 4.636,-20.64533 9.2333,-41.30133 13.848,-61.95199 0.8147,-3.64267 1.676,-7.27334 2.4333,-10.924 0.244,-1.18 0.22,-2.41334 0.388,-4.484 -0.848,1.076 -1.3133,1.41333 -1.416,1.83733 -3.4426,14.10267 -6.8733,28.20667 -10.256,42.324 -2.7413,11.432 -5.4546,22.86666 -8.1146,34.31733 -2.784,11.98 -5.408,23.99733 -8.2534,35.964 -2.4626,10.35867 -5.16,20.66267 -7.708,31.00133 -2.2813,9.264 -4.4413,18.556 -6.756,27.81067 -2.8493,11.39333 -5.7933,22.75866 -8.7346,34.132 -0.192,0.74666 -0.716,1.4 -1.468,2.8 -0.2534,-1.45334 -0.3707,-2.12 -0.6707,-3.82667 -1.4907,5.44 -2.7307,9.96 -3.972,14.48 -0.9227,-5.28 1.6973,-10.14667 1.3453,-15.34667 -3.204,3.86667 -2.412,9.18667 -5.316,13.13334 6.024,-27.12 12.4134,-54.16 16.0627,-81.72 -0.2653,-0.10667 -0.5307,-0.212 -0.796,-0.31867 -0.368,0.868 -0.8573,1.70667 -1.0813,2.60934 -2.876,11.68666 -5.74,23.37466 -8.5574,35.072 -3.1106,12.90399 -6.1666,25.82399 -9.264,38.73066 -0.087,0.34667 -0.3853,0.65333 -0.7586,1.28 -0.468,-0.86667 -0.808,-1.50667 -1.4347,-2.66667 -0.7827,2.21334 -1.4227,4.02667 -2.064,5.84 -0.7853,-4.66666 1.1653,-8.88 1.796,-13.28 0.668,-4.64 1.7147,-9.24 2.5707,-13.85333 0.8306,-4.48 1.9573,-8.94533 2.3493,-13.46533 0.3853,-4.43467 2.7707,-8.60533 1.284,-13.48267 -0.6,0.86934 -1.1987,1.73867 -1.7827,2.584 -0.1666,-0.156 -0.5053,-0.344 -0.4853,-0.47733 0.3653,-2.316 0.8067,-4.62 1.1667,-6.93733 0.3093,-1.97334 0.9906,-3.88534 -0.6814,-5.80934 -0.592,-0.67733 -0.172,-2.408 0.064,-3.60266 1.408,-7.04934 2.9174,-14.08134 4.3534,-21.12534 3.428,-16.804 6.8653,-33.604 10.2386,-50.41733 2.3934,-11.92933 4.6214,-23.88933 7.06,-35.80666 1.3227,-6.46134 1.656,-13.12267 3.924,-19.4 0.3014,-0.832 0.2,-1.81067 -0.336,-2.93867 -0.3306,0.59467 -0.8546,1.15867 -0.9586,1.79333 -0.824,5.01867 -2.8414,9.732 -3.116,14.95067 -0.196,3.756 -1.9467,7.43067 -2.9974,11.14 -1.6506,5.83866 -3.2933,11.676 -5.2626,17.524 0.36,-2.492 0.7173,-4.98534 1.0773,-7.47867 -0.24,-0.0693 -0.4827,-0.13733 -0.724,-0.20667 -0.36,0.64 -0.8707,1.23867 -1.0507,1.92667 -0.6666,2.54 -1.2986,5.09467 -1.7973,7.67333 -0.2667,1.392 -1.092,2.90267 0.6093,4.16934 0.4067,0.30266 0.324,1.51866 0.1774,2.25733 -0.7867,3.928 -1.6534,7.84 -2.5134,11.75067 -0.4733,2.15866 -0.9986,4.30666 -1.4746,6.464 -0.436,1.97333 -0.4414,4.02666 -2.916,5.02133 -0.8627,0.34533 -1.324,2.03333 -1.6947,3.196 -1.5547,4.85333 -2.9413,9.76133 -4.5307,14.60533 -0.6493,1.98534 -0.62,4.40134 -2.9026,5.564 l 0.068,0.0773"
         style="fill:#ffffff;fill-opacity:1;fill-rule:nonzero;stroke:none;stroke-width:0.133333" />
    </g>
  </g>
</svg>
